<svg width="40" height="40" viewBox="0 0 40 40" fill="none" xmlns="http://www.w3.org/2000/svg">
<circle cx="20" cy="20" r="20" fill="#DADADA"/>
<path d="M20.0002 13.3333C20.8842 13.3333 21.7321 13.6844 22.3572 14.3096C22.9823 14.9347 23.3335 15.7825 23.3335 16.6666C23.3335 17.5506 22.9823 18.3985 22.3572 19.0236C21.7321 19.6487 20.8842 19.9999 20.0002 19.9999C19.1161 19.9999 18.2683 19.6487 17.6431 19.0236C17.018 18.3985 16.6668 17.5506 16.6668 16.6666C16.6668 15.7825 17.018 14.9347 17.6431 14.3096C18.2683 13.6844 19.1161 13.3333 20.0002 13.3333ZM20.0002 21.6666C23.6835 21.6666 26.6668 23.1583 26.6668 24.9999V26.6666H13.3335V24.9999C13.3335 23.1583 16.3168 21.6666 20.0002 21.6666Z" fill="#8F7E7E"/>
</svg>
