<svg width="30" height="30" viewBox="0 0 30 30" fill="none" xmlns="http://www.w3.org/2000/svg">
<path d="M26.7979 14.5775L15.3104 26.065C13.9031 27.4723 11.9944 28.263 10.0042 28.263C8.01394 28.263 6.10523 27.4723 4.69792 26.065C3.29062 24.6577 2.5 22.749 2.5 20.7588C2.5 18.7686 3.29062 16.8598 4.69792 15.4525L16.1854 3.96504C17.1236 3.02683 18.3961 2.49976 19.7229 2.49976C21.0497 2.49976 22.3222 3.02683 23.2604 3.96504C24.1986 4.90324 24.7257 6.17572 24.7257 7.50254C24.7257 8.82936 24.1986 10.1018 23.2604 11.04L11.7604 22.5275C11.5281 22.7598 11.2524 22.9441 10.9489 23.0698C10.6454 23.1955 10.3202 23.2602 9.99167 23.2602C9.66318 23.2602 9.33791 23.1955 9.03443 23.0698C8.73095 22.9441 8.4552 22.7598 8.22292 22.5275C7.99065 22.2953 7.80639 22.0195 7.68069 21.716C7.55498 21.4125 7.49028 21.0873 7.49028 20.7588C7.49028 20.4303 7.55498 20.105 7.68069 19.8015C7.80639 19.4981 7.99065 19.2223 8.22292 18.99L18.8354 8.39004" stroke="#0BA360" stroke-width="1.5" stroke-linecap="round" stroke-linejoin="round"/>
</svg>
