<svg width="30" height="30" viewBox="0 0 30 30" fill="none" xmlns="http://www.w3.org/2000/svg">
<g clip-path="url(#clip0_2335_101)">
<path d="M11.2539 10.3125C11.2539 11.0584 10.9576 11.7738 10.4301 12.3012C9.9027 12.8287 9.18733 13.125 8.44141 13.125C7.69548 13.125 6.98011 12.8287 6.45267 12.3012C5.92522 11.7738 5.62891 11.0584 5.62891 10.3125C5.62891 9.56658 5.92522 8.85121 6.45267 8.32376C6.98011 7.79632 7.69548 7.5 8.44141 7.5C9.18733 7.5 9.9027 7.79632 10.4301 8.32376C10.9576 8.85121 11.2539 9.56658 11.2539 10.3125Z" fill="#0BA360"/>
<path d="M3.75391 1.875C2.75934 1.875 1.80552 2.27009 1.10226 2.97335C0.398994 3.67661 0.00390625 4.63044 0.00390625 5.625V24.375C0.00390625 25.3696 0.398994 26.3234 1.10226 27.0266C1.80552 27.7299 2.75934 28.125 3.75391 28.125H26.2539C27.2485 28.125 28.2023 27.7299 28.9056 27.0266C29.6088 26.3234 30.0039 25.3696 30.0039 24.375V5.625C30.0039 4.63044 29.6088 3.67661 28.9056 2.97335C28.2023 2.27009 27.2485 1.875 26.2539 1.875H3.75391ZM26.2539 3.75C26.7512 3.75 27.2281 3.94754 27.5797 4.29917C27.9314 4.65081 28.1289 5.12772 28.1289 5.625V17.8125L21.047 14.1619C20.8712 14.0738 20.6721 14.0432 20.478 14.0745C20.2838 14.1058 20.1044 14.1974 19.9652 14.3363L13.0089 21.2925L8.02141 17.97C7.84133 17.8501 7.62533 17.7962 7.41004 17.8174C7.19475 17.8386 6.99341 17.9336 6.84016 18.0863L1.87891 22.5V5.625C1.87891 5.12772 2.07645 4.65081 2.42808 4.29917C2.77971 3.94754 3.25663 3.75 3.75391 3.75H26.2539Z" fill="#0BA360"/>
</g>
<defs>
<clipPath id="clip0_2335_101">
<rect width="30" height="30" fill="white"/>
</clipPath>
</defs>
</svg>
