<svg width="30" height="30" viewBox="0 0 30 30" fill="none" xmlns="http://www.w3.org/2000/svg">
<path d="M15 20C17.7575 20 20 17.7563 20 15V7.5C20 4.7425 17.7575 2.5 15 2.5C12.2425 2.5 10 4.7425 10 7.5V15C10 17.7563 12.2425 20 15 20ZM23.75 15V12.5C23.75 12.1685 23.6183 11.8505 23.3839 11.6161C23.1495 11.3817 22.8315 11.25 22.5 11.25C22.1685 11.25 21.8505 11.3817 21.6161 11.6161C21.3817 11.8505 21.25 12.1685 21.25 12.5V15C21.25 18.4462 18.4462 21.25 15 21.25C11.5538 21.25 8.75 18.4462 8.75 15V12.5C8.75 12.1685 8.6183 11.8505 8.38388 11.6161C8.14946 11.3817 7.83152 11.25 7.5 11.25C7.16848 11.25 6.85054 11.3817 6.61612 11.6161C6.3817 11.8505 6.25 12.1685 6.25 12.5V15C6.25 19.4 9.51625 23.04 13.75 23.65V25H10C9.66848 25 9.35054 25.1317 9.11612 25.3661C8.8817 25.6005 8.75 25.9185 8.75 26.25C8.75 26.5815 8.8817 26.8995 9.11612 27.1339C9.35054 27.3683 9.66848 27.5 10 27.5H20C20.3315 27.5 20.6495 27.3683 20.8839 27.1339C21.1183 26.8995 21.25 26.5815 21.25 26.25C21.25 25.9185 21.1183 25.6005 20.8839 25.3661C20.6495 25.1317 20.3315 25 20 25H16.25V23.65C20.4838 23.04 23.75 19.4 23.75 15Z" fill="#0BA360"/>
</svg>
