<svg width="30" height="30" viewBox="0 0 30 30" fill="none" xmlns="http://www.w3.org/2000/svg">
<g clip-path="url(#clip0_2335_197)">
<path d="M21.25 3.75C22.2065 3.74995 23.1269 4.11541 23.8228 4.7716C24.5188 5.4278 24.9376 6.32513 24.9938 7.28L25 7.5V12.9375L25.7425 12.6075C26.51 12.2663 27.395 12.795 27.4925 13.605L27.5 13.75V23.75C27.5002 24.3807 27.262 24.9882 26.8331 25.4507C26.4043 25.9132 25.8164 26.1964 25.1875 26.2438L25 26.25H5C4.36928 26.2502 3.76179 26.012 3.29931 25.5831C2.83684 25.1543 2.55355 24.5664 2.50625 23.9375L2.5 23.75V13.75C2.5 12.91 3.34375 12.3162 4.12125 12.5562L4.25875 12.6075L5 12.9375V7.5C4.99995 6.54349 5.36541 5.62311 6.0216 4.92717C6.6778 4.23124 7.57513 3.81237 8.53 3.75625L8.75 3.75H21.25ZM21.25 6.25H8.75C8.41848 6.25 8.10054 6.3817 7.86612 6.61612C7.6317 6.85054 7.5 7.16848 7.5 7.5V14.0487L15 17.3825L22.5 14.0487V7.5C22.5 7.16848 22.3683 6.85054 22.1339 6.61612C21.8995 6.3817 21.5815 6.25 21.25 6.25ZM15 10C15.3186 10.0004 15.625 10.1223 15.8567 10.3411C16.0884 10.5598 16.2278 10.8587 16.2465 11.1767C16.2651 11.4948 16.1617 11.808 15.9572 12.0523C15.7527 12.2966 15.4626 12.4536 15.1462 12.4913L15 12.5H12.5C12.1814 12.4996 11.875 12.3777 11.6433 12.1589C11.4116 11.9402 11.2722 11.6413 11.2535 11.3233C11.2349 11.0052 11.3383 10.692 11.5428 10.4477C11.7473 10.2034 12.0374 10.0464 12.3538 10.0087L12.5 10H15Z" fill="#0BA360"/>
</g>
<defs>
<clipPath id="clip0_2335_197">
<rect width="30" height="30" fill="white"/>
</clipPath>
</defs>
</svg>
