<svg width="30" height="30" viewBox="0 0 30 30" fill="none" xmlns="http://www.w3.org/2000/svg">
<path d="M10.8016 0C9.80066 0 8.88527 0.564456 8.4358 1.45881L7.39524 3.52932H4.41298C1.97576 3.52932 0 5.50507 0 7.9423V22.0649C0 24.5021 1.97576 26.4779 4.41298 26.4779H13.4066C13.1208 25.9187 12.8876 25.328 12.7135 24.7127H4.41298C2.95064 24.7127 1.76519 23.5272 1.76519 22.0649V7.9423C1.76519 6.47997 2.95064 5.29452 4.41298 5.29452H7.93946C8.27312 5.29452 8.57825 5.10636 8.72808 4.80824L10.013 2.25147C10.1628 1.95334 10.468 1.76519 10.8016 1.76519H17.4462C17.7805 1.76519 18.0861 1.9541 18.2356 2.25314L19.512 4.80655C19.6615 5.10561 19.9671 5.29452 20.3014 5.29452H23.83C25.2925 5.29452 26.4778 6.47997 26.4778 7.9423V13.4192C27.1096 13.7429 27.7011 14.1337 28.243 14.5822V7.9423C28.243 5.50509 26.2674 3.52932 23.83 3.52932H20.847L19.8146 1.46387C19.366 0.566732 18.4492 0 17.4462 0H10.8016Z" fill="#0BA360"/>
<path d="M14.1133 7.06079C17.425 7.06079 20.2042 9.34082 20.9669 12.4168C20.3718 12.4833 19.793 12.6035 19.2354 12.7726C18.639 10.5013 16.5717 8.82598 14.1133 8.82598C11.1886 8.82598 8.81768 11.1969 8.81768 14.1215C8.81768 16.5801 10.493 18.6473 12.7643 19.2437C12.5952 19.8014 12.475 20.3802 12.4085 20.9752C9.33255 20.2127 7.05249 17.4334 7.05249 14.1215C7.05249 10.222 10.2137 7.06079 14.1133 7.06079Z" fill="#0BA360"/>
<path d="M29.9999 22.0649C29.9999 26.452 26.4436 30.0083 22.0566 30.0083C17.6697 30.0083 14.1133 26.452 14.1133 22.0649C14.1133 17.6779 17.6697 14.1216 22.0566 14.1216C26.4436 14.1216 29.9999 17.6779 29.9999 22.0649ZM22.9392 18.5346C22.9392 18.0472 22.5441 17.652 22.0566 17.652C21.5692 17.652 21.174 18.0472 21.174 18.5346V21.1823H18.5262C18.0388 21.1823 17.6436 21.5776 17.6436 22.0649C17.6436 22.5523 18.0388 22.9475 18.5262 22.9475H21.174V25.5953C21.174 26.0827 21.5692 26.4779 22.0566 26.4779C22.5441 26.4779 22.9392 26.0827 22.9392 25.5953V22.9475H25.587C26.0745 22.9475 26.4696 22.5523 26.4696 22.0649C26.4696 21.5776 26.0745 21.1823 25.587 21.1823H22.9392V18.5346Z" fill="#0BA360"/>
</svg>
