<svg width="30" height="30" viewBox="0 0 30 30" fill="none" xmlns="http://www.w3.org/2000/svg">
<path fill-rule="evenodd" clip-rule="evenodd" d="M15 2.8125C8.26875 2.8125 2.8125 8.26875 2.8125 15C2.8125 21.7313 8.26875 27.1875 15 27.1875C21.7313 27.1875 27.1875 21.7313 27.1875 15C27.1875 8.26875 21.7313 2.8125 15 2.8125ZM11.7188 10.3125C11.0437 10.3125 10.6838 10.8362 10.5487 11.105C10.3884 11.4431 10.3076 11.8134 10.3125 12.1875C10.3125 12.56 10.3863 12.9438 10.5487 13.27C10.6838 13.5388 11.0425 14.0625 11.7188 14.0625C12.3938 14.0625 12.7537 13.5388 12.8888 13.27C13.0512 12.945 13.125 12.56 13.125 12.1875C13.125 11.815 13.0512 11.4312 12.8888 11.105C12.7537 10.8362 12.395 10.3125 11.7188 10.3125ZM17.1112 11.105C17.2463 10.8362 17.605 10.3125 18.2812 10.3125C18.9562 10.3125 19.3162 10.8362 19.4513 11.105C19.6138 11.43 19.6875 11.815 19.6875 12.1875C19.6875 12.56 19.6138 12.9438 19.4513 13.27C19.3162 13.5388 18.9575 14.0625 18.2812 14.0625C17.6062 14.0625 17.2463 13.5388 17.1112 13.27C16.9509 12.9319 16.8701 12.5616 16.875 12.1875C16.875 11.815 16.9488 11.4312 17.1112 11.105ZM19.64 19.64C19.7321 19.5542 19.806 19.4507 19.8572 19.3357C19.9085 19.2207 19.936 19.0965 19.9382 18.9707C19.9405 18.8448 19.9173 18.7197 19.8702 18.603C19.823 18.4863 19.7528 18.3802 19.6638 18.2912C19.5748 18.2022 19.4687 18.132 19.352 18.0848C19.2353 18.0377 19.1102 18.0145 18.9843 18.0168C18.8585 18.019 18.7343 18.0465 18.6193 18.0978C18.5043 18.149 18.4008 18.2229 18.315 18.315C17.8797 18.7504 17.3629 19.0958 16.7941 19.3314C16.2253 19.5671 15.6157 19.6884 15 19.6884C14.3843 19.6884 13.7747 19.5671 13.2059 19.3314C12.6371 19.0958 12.1203 18.7504 11.685 18.315C11.5073 18.1494 11.2722 18.0592 11.0293 18.0635C10.7865 18.0678 10.5547 18.1662 10.383 18.338C10.2112 18.5097 10.1128 18.7415 10.1085 18.9843C10.1042 19.2272 10.1944 19.4623 10.36 19.64C11.5907 20.8705 13.2597 21.5617 15 21.5617C16.7403 21.5617 18.4093 20.8705 19.64 19.64Z" fill="#0BA360"/>
</svg>
