<svg width="30" height="30" viewBox="0 0 30 30" fill="none" xmlns="http://www.w3.org/2000/svg">
<path d="M23.75 22.5H6.25C5.55964 22.5 5 23.0596 5 23.75C5 24.4404 5.55964 25 6.25 25H23.75C24.4404 25 25 24.4404 25 23.75C25 23.0596 24.4404 22.5 23.75 22.5Z" fill="#0BA360"/>
<path d="M5 21.25V23.75C5 24.4404 5.55964 25 6.25 25C6.94036 25 7.5 24.4404 7.5 23.75V21.25C7.5 20.5596 6.94036 20 6.25 20C5.55964 20 5 20.5596 5 21.25Z" fill="#0BA360"/>
<path d="M22.5 21.25V23.75C22.5 24.4404 23.0596 25 23.75 25C24.4404 25 25 24.4404 25 23.75V21.25C25 20.5596 24.4404 20 23.75 20C23.0596 20 22.5 20.5596 22.5 21.25Z" fill="#0BA360"/>
<path d="M14.9998 18.75C14.7407 18.752 14.4873 18.6733 14.2748 18.525L9.27482 15C9.00533 14.8088 8.82249 14.5187 8.76628 14.1932C8.71006 13.8676 8.78504 13.533 8.97482 13.2625C9.06955 13.1273 9.19012 13.0122 9.32957 12.9239C9.46902 12.8355 9.62459 12.7757 9.7873 12.7478C9.95 12.7199 10.1166 12.7245 10.2775 12.7614C10.4384 12.7982 10.5905 12.8666 10.7248 12.9625L14.9998 15.95L19.2498 12.75C19.515 12.5511 19.8484 12.4657 20.1766 12.5126C20.5048 12.5595 20.8009 12.7348 20.9998 13C21.1987 13.2652 21.2841 13.5986 21.2373 13.9268C21.1904 14.255 21.015 14.5511 20.7498 14.75L15.7498 18.5C15.5334 18.6623 15.2703 18.75 14.9998 18.75Z" fill="#0BA360"/>
<path d="M15 16.25C14.6685 16.25 14.3505 16.1183 14.1161 15.8839C13.8817 15.6495 13.75 15.3315 13.75 15V5C13.75 4.66848 13.8817 4.35054 14.1161 4.11612C14.3505 3.8817 14.6685 3.75 15 3.75C15.3315 3.75 15.6495 3.8817 15.8839 4.11612C16.1183 4.35054 16.25 4.66848 16.25 5V15C16.25 15.3315 16.1183 15.6495 15.8839 15.8839C15.6495 16.1183 15.3315 16.25 15 16.25Z" fill="#0BA360"/>
</svg>
