<svg width="21" height="21" viewBox="0 0 21 21" fill="none" xmlns="http://www.w3.org/2000/svg">
<path d="M16.5003 18.375L11.2503 12.8625C10.8337 13.2125 10.3545 13.4896 9.81283 13.6937C9.27116 13.8979 8.69477 14 8.08366 14C6.56977 14 5.28866 13.4493 4.24033 12.348C3.19199 11.2467 2.66755 9.9015 2.66699 8.3125C2.66699 6.72292 3.19144 5.37775 4.24033 4.277C5.28921 3.17625 6.57033 2.62558 8.08366 2.625C9.59755 2.625 10.8789 3.17567 11.9278 4.277C12.9767 5.37833 13.5009 6.7235 13.5003 8.3125C13.5003 8.95417 13.4031 9.55937 13.2087 10.1281C13.0142 10.6969 12.7503 11.2 12.417 11.6375L17.667 17.15L16.5003 18.375ZM8.08366 12.25C9.12533 12.25 10.0109 11.8673 10.7403 11.102C11.4698 10.3367 11.8342 9.40683 11.8337 8.3125C11.8337 7.21875 11.4692 6.28921 10.7403 5.52388C10.0114 4.75854 9.12588 4.37558 8.08366 4.375C7.04199 4.375 6.15671 4.75796 5.42783 5.52388C4.69894 6.28979 4.33421 7.21933 4.33366 8.3125C4.33366 9.40625 4.69838 10.3361 5.42783 11.102C6.15727 11.8679 7.04255 12.2506 8.08366 12.25Z" fill="#C9C9C9"/>
</svg>
