<svg width="30" height="30" viewBox="0 0 30 30" fill="none" xmlns="http://www.w3.org/2000/svg">
<g clip-path="url(#clip0_2331_170)">
<path fill-rule="evenodd" clip-rule="evenodd" d="M20 3.75C20.6307 3.7498 21.2382 3.98801 21.7007 4.41687C22.1632 4.84573 22.4464 5.43356 22.4938 6.0625L22.5 6.25V23.75C22.5002 24.3807 22.262 24.9882 21.8331 25.4507C21.4043 25.9132 20.8164 26.1964 20.1875 26.2438L20 26.25H7.5C6.86928 26.2502 6.26179 26.012 5.79932 25.5831C5.33684 25.1543 5.05355 24.5664 5.00625 23.9375L5 23.75V6.25C4.9998 5.61928 5.23801 5.01179 5.66687 4.54932C6.09573 4.08684 6.68356 3.80355 7.3125 3.75625L7.5 3.75H20ZM13.75 16.25C12.6988 16.25 11.575 16.4213 10.6638 16.8263C9.79625 17.2125 8.75 18.005 8.75 19.375C8.74878 19.6933 8.86901 20 9.08615 20.2326C9.3033 20.4653 9.60101 20.6064 9.91859 20.6271C10.2362 20.6478 10.5497 20.5467 10.7952 20.3442C11.0408 20.1417 11.1998 19.8532 11.24 19.5375L11.25 19.3938L11.3125 19.33C11.424 19.24 11.5478 19.1664 11.68 19.1112C12.175 18.8912 12.925 18.75 13.75 18.75C14.5737 18.75 15.325 18.8912 15.82 19.1112C15.9575 19.1725 16.0575 19.2325 16.1275 19.2825L16.1863 19.33L16.25 19.3938C16.2525 19.7253 16.3866 20.0422 16.6227 20.2749C16.8589 20.5075 17.1779 20.6369 17.5094 20.6344C17.8409 20.6319 18.1579 20.4978 18.3905 20.2616C18.6232 20.0254 18.7525 19.7065 18.75 19.375C18.75 18.005 17.7037 17.2125 16.8363 16.8263C15.925 16.4213 14.8 16.25 13.75 16.25ZM13.75 10C13.087 10 12.4511 10.2634 11.9822 10.7322C11.5134 11.2011 11.25 11.837 11.25 12.5C11.25 13.163 11.5134 13.7989 11.9822 14.2678C12.4511 14.7366 13.087 15 13.75 15C14.413 15 15.0489 14.7366 15.5178 14.2678C15.9866 13.7989 16.25 13.163 16.25 12.5C16.25 11.837 15.9866 11.2011 15.5178 10.7322C15.0489 10.2634 14.413 10 13.75 10ZM24.9675 23.8288L23.75 24.2337V5.76625L24.9675 6.17125C25.3409 6.29562 25.6657 6.53434 25.8959 6.85359C26.1261 7.17284 26.25 7.55642 26.25 7.95V22.05C26.25 22.4436 26.1261 22.8272 25.8959 23.1464C25.6657 23.4657 25.3409 23.7044 24.9675 23.8288Z" fill="#0BA360"/>
</g>
<defs>
<clipPath id="clip0_2331_170">
<rect width="30" height="30" fill="white"/>
</clipPath>
</defs>
</svg>
