<svg width="35" height="35" viewBox="0 0 35 35" fill="none" xmlns="http://www.w3.org/2000/svg">
<path d="M22.9688 4.375H12.0312C10.0014 4.37717 8.05522 5.18451 6.61986 6.61986C5.18451 8.05522 4.37717 10.0014 4.375 12.0312V22.9688C4.37717 24.9986 5.18451 26.9448 6.61986 28.3801C8.05522 29.8155 10.0014 30.6228 12.0312 30.625H18.5938C18.7113 30.6249 18.8281 30.6059 18.9396 30.5689C22.5258 29.3727 29.3727 22.5258 30.5689 18.9396C30.6059 18.8281 30.6249 18.7113 30.625 18.5938V12.0312C30.6228 10.0014 29.8155 8.05522 28.3801 6.61986C26.9448 5.18451 24.9986 4.37717 22.9688 4.375ZM18.5938 28.3582V24.0625C18.5938 22.6121 19.1699 21.2211 20.1955 20.1955C21.2211 19.1699 22.6121 18.5938 24.0625 18.5938H28.3582C27.0922 21.54 21.54 27.0922 18.5938 28.3582Z" fill="#0BA360"/>
</svg>
