<svg width="30" height="30" viewBox="0 0 30 30" fill="none" xmlns="http://www.w3.org/2000/svg">
<path d="M25.337 20.3311L26.2183 15.2311C26.27 14.9322 26.2558 14.6256 26.1766 14.3328C26.0975 14.0399 25.9553 13.7679 25.76 13.5357C25.5648 13.3036 25.3211 13.1169 25.0462 12.9887C24.7713 12.8605 24.4716 12.7939 24.1683 12.7936H17.692C17.5409 12.7937 17.3915 12.7608 17.2544 12.6973C17.1172 12.6338 16.9955 12.5412 16.8978 12.426C16.8 12.3107 16.7285 12.1755 16.6882 12.0299C16.6479 11.8842 16.6398 11.7315 16.6645 11.5824L17.4933 6.52614C17.6278 5.70518 17.5894 4.86519 17.3808 4.05989C17.2915 3.72714 17.1195 3.42236 16.8809 3.17388C16.6422 2.9254 16.3446 2.74128 16.0158 2.63864L15.8345 2.57989C15.4247 2.44825 14.9801 2.47867 14.592 2.66489C14.167 2.86989 13.857 3.24364 13.742 3.68739L13.147 5.97989C12.9576 6.70942 12.6823 7.41392 12.327 8.07864C11.8083 9.04989 11.0058 9.82864 10.1708 10.5474L8.37202 12.0974C8.12248 12.313 7.92759 12.5847 7.80331 12.8902C7.67902 13.1957 7.62889 13.5263 7.65702 13.8549L8.67202 25.5961C8.71676 26.1154 8.95457 26.599 9.33851 26.9515C9.72244 27.3039 10.2246 27.4996 10.7458 27.4999H16.5558C20.9083 27.4999 24.622 24.4674 25.337 20.3311Z" fill="#0BA360"/>
<path fill-rule="evenodd" clip-rule="evenodd" d="M3.7101 11.8562C3.95167 11.8457 4.18799 11.9289 4.36967 12.0884C4.55136 12.248 4.66437 12.4716 4.6851 12.7125L5.8976 26.7575C5.91814 26.9666 5.89583 27.1778 5.83203 27.378C5.76822 27.5783 5.66428 27.7634 5.52653 27.9221C5.38878 28.0808 5.22012 28.2098 5.03085 28.3012C4.84159 28.3925 4.63568 28.4443 4.42572 28.4534C4.21576 28.4625 4.00615 28.4287 3.80969 28.3541C3.61323 28.2795 3.43404 28.1656 3.28307 28.0194C3.1321 27.8732 3.01252 27.6977 2.93163 27.5038C2.85074 27.3098 2.81024 27.1014 2.8126 26.8912V12.7925C2.8127 12.5508 2.90611 12.3186 3.07333 12.1441C3.24055 11.9697 3.46867 11.8666 3.7101 11.8562Z" fill="#0BA360"/>
</svg>
