<svg width="200" height="228" viewBox="0 0 200 228" fill="none" xmlns="http://www.w3.org/2000/svg">
<path d="M29.6477 203.42C29.5568 202.504 29.1667 201.792 28.4773 201.284C27.7879 200.777 26.8523 200.523 25.6705 200.523C24.8674 200.523 24.1894 200.636 23.6364 200.864C23.0833 201.083 22.6591 201.39 22.3636 201.784C22.0758 202.178 21.9318 202.625 21.9318 203.125C21.9167 203.542 22.0038 203.905 22.1932 204.216C22.3902 204.527 22.6591 204.795 23 205.023C23.3409 205.242 23.7348 205.436 24.1818 205.602C24.6288 205.761 25.1061 205.898 25.6136 206.011L27.7045 206.511C28.7197 206.739 29.6515 207.042 30.5 207.42C31.3485 207.799 32.0833 208.265 32.7045 208.818C33.3258 209.371 33.8068 210.023 34.1477 210.773C34.4962 211.523 34.6742 212.383 34.6818 213.352C34.6742 214.777 34.3106 216.011 33.5909 217.057C32.8788 218.095 31.8485 218.902 30.5 219.477C29.1591 220.045 27.5417 220.33 25.6477 220.33C23.7689 220.33 22.1326 220.042 20.7386 219.466C19.3523 218.89 18.2689 218.038 17.4886 216.909C16.7159 215.773 16.3106 214.367 16.2727 212.693H21.0341C21.0871 213.473 21.3106 214.125 21.7045 214.648C22.1061 215.163 22.6402 215.553 23.3068 215.818C23.9811 216.076 24.7424 216.205 25.5909 216.205C26.4242 216.205 27.1477 216.083 27.7614 215.841C28.3826 215.598 28.8636 215.261 29.2045 214.83C29.5455 214.398 29.7159 213.902 29.7159 213.341C29.7159 212.818 29.5606 212.379 29.25 212.023C28.947 211.667 28.5 211.364 27.9091 211.114C27.3258 210.864 26.6098 210.636 25.7614 210.432L23.2273 209.795C21.2652 209.318 19.7159 208.572 18.5795 207.557C17.4432 206.542 16.8788 205.174 16.8864 203.455C16.8788 202.045 17.2538 200.814 18.0114 199.761C18.7765 198.708 19.8258 197.886 21.1591 197.295C22.4924 196.705 24.0076 196.409 25.7045 196.409C27.4318 196.409 28.9394 196.705 30.2273 197.295C31.5227 197.886 32.5303 198.708 33.25 199.761C33.9697 200.814 34.3409 202.034 34.3636 203.42H29.6477ZM37.9006 220V202.545H42.5142V205.625H42.7188C43.0824 204.602 43.6884 203.795 44.5369 203.205C45.3854 202.614 46.4006 202.318 47.5824 202.318C48.7794 202.318 49.7983 202.617 50.6392 203.216C51.4801 203.807 52.0407 204.61 52.321 205.625H52.5028C52.8589 204.625 53.5028 203.826 54.4347 203.227C55.3741 202.621 56.4839 202.318 57.7642 202.318C59.393 202.318 60.715 202.837 61.7301 203.875C62.7528 204.905 63.2642 206.367 63.2642 208.261V220H58.4347V209.216C58.4347 208.246 58.1771 207.519 57.6619 207.034C57.1468 206.549 56.5028 206.307 55.7301 206.307C54.8513 206.307 54.1657 206.587 53.6733 207.148C53.1809 207.701 52.9347 208.432 52.9347 209.341V220H48.2415V209.114C48.2415 208.258 47.9953 207.576 47.5028 207.068C47.018 206.561 46.3778 206.307 45.5824 206.307C45.0445 206.307 44.5597 206.443 44.1278 206.716C43.7036 206.981 43.3665 207.356 43.1165 207.841C42.8665 208.318 42.7415 208.879 42.7415 209.523V220H37.9006ZM67.0881 220V202.545H71.929V220H67.0881ZM69.5199 200.295C68.8002 200.295 68.1828 200.057 67.6676 199.58C67.16 199.095 66.9062 198.515 66.9062 197.841C66.9062 197.174 67.16 196.602 67.6676 196.125C68.1828 195.64 68.8002 195.398 69.5199 195.398C70.2396 195.398 70.8532 195.64 71.3608 196.125C71.8759 196.602 72.1335 197.174 72.1335 197.841C72.1335 198.515 71.8759 199.095 71.3608 199.58C70.8532 200.057 70.2396 200.295 69.5199 200.295ZM80.6477 196.727V220H75.8068V196.727H80.6477ZM92.4801 220.341C90.6847 220.341 89.1392 219.977 87.8438 219.25C86.5559 218.515 85.5634 217.477 84.8665 216.136C84.1695 214.788 83.821 213.193 83.821 211.352C83.821 209.557 84.1695 207.981 84.8665 206.625C85.5634 205.269 86.5445 204.212 87.8097 203.455C89.0824 202.697 90.5748 202.318 92.2869 202.318C93.4384 202.318 94.5104 202.504 95.5028 202.875C96.5028 203.239 97.3741 203.788 98.1165 204.523C98.8665 205.258 99.4498 206.182 99.8665 207.295C100.283 208.402 100.491 209.697 100.491 211.182V212.511H85.7528V209.511H95.9347C95.9347 208.814 95.7831 208.197 95.4801 207.659C95.1771 207.121 94.7566 206.701 94.2188 206.398C93.6884 206.087 93.071 205.932 92.3665 205.932C91.6316 205.932 90.9801 206.102 90.4119 206.443C89.8513 206.777 89.4119 207.227 89.0938 207.795C88.7756 208.356 88.6127 208.981 88.6051 209.67V212.523C88.6051 213.386 88.7642 214.133 89.0824 214.761C89.4081 215.39 89.8665 215.875 90.4574 216.216C91.0483 216.557 91.7491 216.727 92.5597 216.727C93.0975 216.727 93.59 216.652 94.0369 216.5C94.4839 216.348 94.8665 216.121 95.1847 215.818C95.5028 215.515 95.7453 215.144 95.9119 214.705L100.389 215C100.162 216.076 99.696 217.015 98.9915 217.818C98.2945 218.614 97.393 219.235 96.2869 219.682C95.1884 220.121 93.9195 220.341 92.4801 220.341ZM131.682 204.875H126.705C126.614 204.231 126.428 203.659 126.148 203.159C125.867 202.652 125.508 202.22 125.068 201.864C124.629 201.508 124.121 201.235 123.545 201.045C122.977 200.856 122.36 200.761 121.693 200.761C120.489 200.761 119.439 201.061 118.545 201.659C117.652 202.25 116.958 203.114 116.466 204.25C115.973 205.379 115.727 206.75 115.727 208.364C115.727 210.023 115.973 211.417 116.466 212.545C116.966 213.674 117.663 214.527 118.557 215.102C119.451 215.678 120.485 215.966 121.659 215.966C122.318 215.966 122.928 215.879 123.489 215.705C124.057 215.53 124.561 215.277 125 214.943C125.439 214.602 125.803 214.189 126.091 213.705C126.386 213.22 126.591 212.667 126.705 212.045L131.682 212.068C131.553 213.136 131.231 214.167 130.716 215.159C130.208 216.144 129.523 217.027 128.659 217.807C127.803 218.58 126.78 219.193 125.591 219.648C124.409 220.095 123.072 220.318 121.58 220.318C119.504 220.318 117.648 219.848 116.011 218.909C114.383 217.97 113.095 216.61 112.148 214.83C111.208 213.049 110.739 210.894 110.739 208.364C110.739 205.826 111.216 203.667 112.17 201.886C113.125 200.106 114.42 198.75 116.057 197.818C117.693 196.879 119.534 196.409 121.58 196.409C122.928 196.409 124.178 196.598 125.33 196.977C126.489 197.356 127.515 197.909 128.409 198.636C129.303 199.356 130.03 200.239 130.591 201.284C131.159 202.33 131.523 203.527 131.682 204.875ZM139.96 209.909V220H135.119V196.727H139.824V205.625H140.028C140.422 204.595 141.059 203.788 141.938 203.205C142.816 202.614 143.919 202.318 145.244 202.318C146.456 202.318 147.513 202.583 148.415 203.114C149.324 203.636 150.028 204.39 150.528 205.375C151.036 206.352 151.286 207.523 151.278 208.886V220H146.438V209.75C146.445 208.674 146.172 207.837 145.619 207.239C145.074 206.64 144.309 206.341 143.324 206.341C142.665 206.341 142.081 206.481 141.574 206.761C141.074 207.042 140.68 207.451 140.392 207.989C140.112 208.519 139.968 209.159 139.96 209.909ZM160.065 220.33C158.952 220.33 157.959 220.136 157.088 219.75C156.217 219.356 155.527 218.777 155.02 218.011C154.52 217.239 154.27 216.277 154.27 215.125C154.27 214.155 154.448 213.341 154.804 212.682C155.16 212.023 155.645 211.492 156.259 211.091C156.872 210.689 157.569 210.386 158.349 210.182C159.137 209.977 159.963 209.833 160.827 209.75C161.842 209.644 162.66 209.545 163.281 209.455C163.902 209.356 164.353 209.212 164.634 209.023C164.914 208.833 165.054 208.553 165.054 208.182V208.114C165.054 207.394 164.827 206.837 164.372 206.443C163.925 206.049 163.289 205.852 162.463 205.852C161.592 205.852 160.899 206.045 160.384 206.432C159.868 206.811 159.527 207.288 159.361 207.864L154.884 207.5C155.111 206.439 155.558 205.523 156.224 204.75C156.891 203.97 157.751 203.371 158.804 202.955C159.865 202.53 161.092 202.318 162.486 202.318C163.455 202.318 164.384 202.432 165.27 202.659C166.164 202.886 166.955 203.239 167.645 203.716C168.342 204.193 168.891 204.807 169.293 205.557C169.694 206.299 169.895 207.189 169.895 208.227V220H165.304V217.58H165.168C164.887 218.125 164.512 218.606 164.043 219.023C163.573 219.432 163.009 219.754 162.349 219.989C161.69 220.216 160.929 220.33 160.065 220.33ZM161.452 216.989C162.164 216.989 162.793 216.848 163.338 216.568C163.884 216.28 164.312 215.894 164.622 215.409C164.933 214.924 165.088 214.375 165.088 213.761V211.909C164.937 212.008 164.728 212.098 164.463 212.182C164.205 212.258 163.914 212.33 163.588 212.398C163.262 212.458 162.937 212.515 162.611 212.568C162.285 212.614 161.99 212.655 161.724 212.693C161.156 212.777 160.66 212.909 160.236 213.091C159.812 213.273 159.482 213.519 159.247 213.83C159.012 214.133 158.895 214.511 158.895 214.966C158.895 215.625 159.134 216.129 159.611 216.477C160.096 216.818 160.709 216.989 161.452 216.989ZM182.935 202.545V206.182H172.423V202.545H182.935ZM174.81 198.364H179.651V214.636C179.651 215.083 179.719 215.432 179.855 215.682C179.991 215.924 180.181 216.095 180.423 216.193C180.673 216.292 180.961 216.341 181.287 216.341C181.514 216.341 181.741 216.322 181.969 216.284C182.196 216.239 182.37 216.205 182.491 216.182L183.253 219.784C183.01 219.86 182.67 219.947 182.23 220.045C181.791 220.152 181.257 220.216 180.628 220.239C179.461 220.284 178.438 220.129 177.56 219.773C176.688 219.417 176.01 218.864 175.526 218.114C175.041 217.364 174.802 216.417 174.81 215.273V198.364Z" fill="#0BA360"/>
<path d="M100 175C96.6344 175 93.6063 173.266 91.9031 170.363L80.3594 150.631C77.9875 146.572 73.8 143.803 68.875 143.031C39.2531 138.4 17.7188 112.25 18.7906 82.2125C19.9094 50.6656 47.1344 25 79.475 25H120.528C152.869 25 180.094 50.6656 181.212 82.2125C182.284 112.247 160.747 138.397 131.125 143.031C126.203 143.803 122.016 146.572 119.644 150.631L108.1 170.359C106.394 173.266 103.366 175 100 175ZM79.475 31.25C50.4594 31.25 26.0375 54.2125 25.0344 82.4313C24.0781 109.312 43.3406 132.709 69.8438 136.853C76.6344 137.919 82.4313 141.788 85.7562 147.472L97.3 167.2C98.1156 168.6 99.4594 168.75 100 168.75C100.541 168.75 101.884 168.6 102.7 167.2L114.244 147.472C117.566 141.788 123.366 137.916 130.153 136.853C156.656 132.706 175.922 109.312 174.966 82.4313C173.962 54.2125 149.544 31.25 120.525 31.25H79.475Z" fill="#0BA360"/>
<path d="M78.125 68.7437C72.9473 68.7437 68.75 72.941 68.75 78.1187C68.75 83.2963 72.9473 87.4937 78.125 87.4937C83.3027 87.4937 87.5 83.2963 87.5 78.1187C87.5 72.941 83.3027 68.7437 78.125 68.7437Z" fill="#0BA360"/>
<path d="M121.875 68.7437C116.697 68.7437 112.5 72.941 112.5 78.1187C112.5 83.2963 116.697 87.4937 121.875 87.4937C127.053 87.4937 131.25 83.2963 131.25 78.1187C131.25 72.941 127.053 68.7437 121.875 68.7437Z" fill="#0BA360"/>
<path d="M112.5 93.75H87.5C85.775 93.75 84.375 95.1437 84.375 96.8687V99.9937C84.375 108.622 91.3719 115.619 100 115.619C108.628 115.619 115.625 108.622 115.625 99.9937V96.8687C115.625 95.1437 114.225 93.75 112.5 93.75Z" fill="#0BA360"/>
<path d="M81.25 37.5H118.75V43.75H81.25V37.5Z" fill="#0BA360"/>
</svg>
